<mxfile host="app.diagrams.net" modified="2021-05-29T00:54:52.540Z" agent="5.0 (Macintosh; Intel Mac OS X 10_15_7) AppleWebKit/537.36 (KHTML, like Gecko) Chrome/90.0.4430.212 Safari/537.36" etag="Vdo0_ccVfdZTEH7rq-wL" version="14.7.2" type="github">
  <diagram id="JOsgbX38XLbBY9DrWCiV" name="Page-1">
    <mxGraphModel dx="946" dy="614" grid="1" gridSize="10" guides="1" tooltips="1" connect="1" arrows="1" fold="1" page="1" pageScale="1" pageWidth="3300" pageHeight="4681" math="0" shadow="0">
      <root>
        <mxCell id="0" />
        <mxCell id="1" parent="0" />
        <mxCell id="Bx13AfeXELvHfdjOSMqN-1" value="Actor" style="shape=umlActor;verticalLabelPosition=bottom;verticalAlign=top;html=1;outlineConnect=0;" vertex="1" parent="1">
          <mxGeometry x="40" y="40" width="30" height="60" as="geometry" />
        </mxCell>
        <mxCell id="Bx13AfeXELvHfdjOSMqN-2" value="non member" style="text;html=1;strokeColor=none;fillColor=none;align=center;verticalAlign=middle;whiteSpace=wrap;rounded=0;" vertex="1" parent="1">
          <mxGeometry x="35" y="10" width="40" height="20" as="geometry" />
        </mxCell>
        <mxCell id="Bx13AfeXELvHfdjOSMqN-5" style="edgeStyle=orthogonalEdgeStyle;rounded=0;orthogonalLoop=1;jettySize=auto;html=1;entryX=0;entryY=0.5;entryDx=0;entryDy=0;" edge="1" parent="1" source="Bx13AfeXELvHfdjOSMqN-3" target="Bx13AfeXELvHfdjOSMqN-4">
          <mxGeometry relative="1" as="geometry" />
        </mxCell>
        <mxCell id="Bx13AfeXELvHfdjOSMqN-3" value="Reaches Home Page" style="rounded=1;whiteSpace=wrap;html=1;" vertex="1" parent="1">
          <mxGeometry x="120" y="40" width="120" height="40" as="geometry" />
        </mxCell>
        <mxCell id="Bx13AfeXELvHfdjOSMqN-8" style="edgeStyle=orthogonalEdgeStyle;rounded=0;orthogonalLoop=1;jettySize=auto;html=1;entryX=0;entryY=0.5;entryDx=0;entryDy=0;" edge="1" parent="1" source="Bx13AfeXELvHfdjOSMqN-4" target="Bx13AfeXELvHfdjOSMqN-7">
          <mxGeometry relative="1" as="geometry" />
        </mxCell>
        <mxCell id="Bx13AfeXELvHfdjOSMqN-4" value="Continue as Guest / Register to become a member" style="rounded=1;whiteSpace=wrap;html=1;" vertex="1" parent="1">
          <mxGeometry x="320" y="40" width="120" height="40" as="geometry" />
        </mxCell>
        <mxCell id="Bx13AfeXELvHfdjOSMqN-6" value="can" style="text;html=1;strokeColor=none;fillColor=none;align=center;verticalAlign=middle;whiteSpace=wrap;rounded=0;" vertex="1" parent="1">
          <mxGeometry x="260" y="30" width="40" height="20" as="geometry" />
        </mxCell>
        <mxCell id="Bx13AfeXELvHfdjOSMqN-11" style="edgeStyle=orthogonalEdgeStyle;rounded=0;orthogonalLoop=1;jettySize=auto;html=1;entryX=0;entryY=0.5;entryDx=0;entryDy=0;" edge="1" parent="1" source="Bx13AfeXELvHfdjOSMqN-7" target="Bx13AfeXELvHfdjOSMqN-10">
          <mxGeometry relative="1" as="geometry" />
        </mxCell>
        <mxCell id="Bx13AfeXELvHfdjOSMqN-7" value="Continue as Guest" style="rounded=1;whiteSpace=wrap;html=1;" vertex="1" parent="1">
          <mxGeometry x="520" y="40" width="120" height="40" as="geometry" />
        </mxCell>
        <mxCell id="Bx13AfeXELvHfdjOSMqN-9" value="Clicks" style="text;html=1;strokeColor=none;fillColor=none;align=center;verticalAlign=middle;whiteSpace=wrap;rounded=0;" vertex="1" parent="1">
          <mxGeometry x="460" y="30" width="40" height="20" as="geometry" />
        </mxCell>
        <mxCell id="Bx13AfeXELvHfdjOSMqN-14" style="edgeStyle=orthogonalEdgeStyle;rounded=0;orthogonalLoop=1;jettySize=auto;html=1;entryX=0;entryY=0.5;entryDx=0;entryDy=0;" edge="1" parent="1" source="Bx13AfeXELvHfdjOSMqN-10" target="Bx13AfeXELvHfdjOSMqN-13">
          <mxGeometry relative="1" as="geometry" />
        </mxCell>
        <mxCell id="Bx13AfeXELvHfdjOSMqN-10" value="Signup Form(Email &amp;amp; Password)" style="rounded=1;whiteSpace=wrap;html=1;" vertex="1" parent="1">
          <mxGeometry x="720" y="40" width="120" height="40" as="geometry" />
        </mxCell>
        <mxCell id="Bx13AfeXELvHfdjOSMqN-12" value="Loads" style="text;html=1;strokeColor=none;fillColor=none;align=center;verticalAlign=middle;whiteSpace=wrap;rounded=0;" vertex="1" parent="1">
          <mxGeometry x="660" y="30" width="40" height="20" as="geometry" />
        </mxCell>
        <mxCell id="Bx13AfeXELvHfdjOSMqN-16" style="edgeStyle=orthogonalEdgeStyle;rounded=0;orthogonalLoop=1;jettySize=auto;html=1;entryX=0;entryY=0.5;entryDx=0;entryDy=0;" edge="1" parent="1" source="Bx13AfeXELvHfdjOSMqN-13" target="Bx13AfeXELvHfdjOSMqN-15">
          <mxGeometry relative="1" as="geometry" />
        </mxCell>
        <mxCell id="Bx13AfeXELvHfdjOSMqN-13" value="Enters Data &amp;amp; Submit" style="rounded=1;whiteSpace=wrap;html=1;" vertex="1" parent="1">
          <mxGeometry x="920" y="40" width="120" height="40" as="geometry" />
        </mxCell>
        <mxCell id="Bx13AfeXELvHfdjOSMqN-15" value="Handed over to /guest/newuser" style="rounded=1;whiteSpace=wrap;html=1;" vertex="1" parent="1">
          <mxGeometry x="1120" y="40" width="120" height="40" as="geometry" />
        </mxCell>
        <mxCell id="Bx13AfeXELvHfdjOSMqN-17" value="Middleware" style="text;html=1;strokeColor=none;fillColor=none;align=center;verticalAlign=middle;whiteSpace=wrap;rounded=0;" vertex="1" parent="1">
          <mxGeometry x="1130" y="10" width="100" height="20" as="geometry" />
        </mxCell>
        <mxCell id="Bx13AfeXELvHfdjOSMqN-18" value="Front End" style="text;html=1;strokeColor=none;fillColor=none;align=center;verticalAlign=middle;whiteSpace=wrap;rounded=0;" vertex="1" parent="1">
          <mxGeometry x="930" y="10" width="100" height="20" as="geometry" />
        </mxCell>
        <mxCell id="Bx13AfeXELvHfdjOSMqN-19" value="Front End" style="text;html=1;strokeColor=none;fillColor=none;align=center;verticalAlign=middle;whiteSpace=wrap;rounded=0;" vertex="1" parent="1">
          <mxGeometry x="740" y="10" width="100" height="20" as="geometry" />
        </mxCell>
        <mxCell id="Bx13AfeXELvHfdjOSMqN-20" value="Front End" style="text;html=1;strokeColor=none;fillColor=none;align=center;verticalAlign=middle;whiteSpace=wrap;rounded=0;" vertex="1" parent="1">
          <mxGeometry x="530" y="10" width="100" height="20" as="geometry" />
        </mxCell>
        <mxCell id="Bx13AfeXELvHfdjOSMqN-21" value="Front End" style="text;html=1;strokeColor=none;fillColor=none;align=center;verticalAlign=middle;whiteSpace=wrap;rounded=0;" vertex="1" parent="1">
          <mxGeometry x="330" y="10" width="100" height="20" as="geometry" />
        </mxCell>
        <mxCell id="Bx13AfeXELvHfdjOSMqN-22" value="Front End" style="text;html=1;strokeColor=none;fillColor=none;align=center;verticalAlign=middle;whiteSpace=wrap;rounded=0;" vertex="1" parent="1">
          <mxGeometry x="130" y="10" width="100" height="20" as="geometry" />
        </mxCell>
      </root>
    </mxGraphModel>
  </diagram>
</mxfile>
